<?xml version="1.0" standalone="no"?>
<!DOCTYPE svg PUBLIC "-//W3C//DTD SVG 20010904//EN"
 "http://www.w3.org/TR/2001/REC-SVG-20010904/DTD/svg10.dtd">
<svg version="1.0" xmlns="http://www.w3.org/2000/svg"
 width="4096.000000pt" height="4096.000000pt" viewBox="0 0 4096.000000 4096.000000"
 preserveAspectRatio="xMidYMid meet">

<g transform="translate(0.000000,4096.000000) scale(0.100000,-0.100000)"
fill="#000000" stroke="none">
<path d="M14513 29364 c-5095 -4881 -9263 -8879 -9263 -8884 0 -5 4134 -3970
9188 -8812 5053 -4841 9221 -8835 9263 -8875 l75 -73 827 863 826 862 -97 97
c-53 53 -3816 3659 -8362 8013 -4546 4354 -8265 7920 -8265 7925 0 5 3719
3571 8265 7925 4546 4354 8309 7960 8362 8013 l97 97 -795 830 c-437 457 -809
844 -827 862 l-32 32 -9262 -8875z"/>
<path d="M24800 29363 c-5096 -4882 -9265 -8879 -9265 -8883 0 -4 4151 -3984
9225 -8844 5074 -4861 9243 -8856 9265 -8877 l40 -38 710 741 c391 407 763
796 828 863 l117 123 -8365 8013 c-4601 4408 -8365 8016 -8365 8019 0 3 3765
3612 8366 8019 l8365 8014 -89 91 c-49 50 -403 420 -787 821 -384 402 -716
749 -739 773 l-42 42 -9264 -8877z"/>
</g>
</svg>
